<svg width="218" height="218" viewBox="0 0 218 218" fill="none" xmlns="http://www.w3.org/2000/svg">
<circle cx="109" cy="109" r="109" fill="white"/>
<path d="M109 46C109 41.8466 110.232 37.7865 112.539 34.333C114.847 30.8796 118.126 28.188 121.964 26.5985C125.801 25.0091 130.023 24.5932 134.097 25.4035C138.171 26.2138 141.912 28.2139 144.849 31.1508C147.786 34.0877 149.786 37.8295 150.596 41.9031C151.407 45.9767 150.991 50.1991 149.401 54.0364C147.812 57.8736 145.12 61.1534 141.667 63.4609C138.214 65.7684 134.153 67 130 67M109 46C109 41.8466 107.768 37.7865 105.461 34.333C103.153 30.8796 99.8736 28.188 96.0364 26.5985C92.1991 25.0091 87.9767 24.5932 83.9031 25.4035C79.8295 26.2138 76.0877 28.2139 73.1508 31.1508C70.2139 34.0877 68.2138 37.8295 67.4035 41.9031C66.5932 45.9767 67.0091 50.1991 68.5985 54.0364C70.188 57.8736 72.8796 61.1534 76.333 63.4609C79.7865 65.7684 83.8466 67 88 67M109 46V53M130 67C134.153 67 138.214 68.2316 141.667 70.5391C145.12 72.8467 147.812 76.1264 149.401 79.9637C150.991 83.8009 151.407 88.0233 150.596 92.0969C149.786 96.1705 147.786 99.9123 144.849 102.849C141.912 105.786 138.171 107.786 134.097 108.596C130.023 109.407 125.801 108.991 121.964 107.401C118.126 105.812 114.847 103.12 112.539 99.667C110.232 96.2136 109 92.1534 109 88M130 67H123M88 67C83.8466 67 79.7865 68.2316 76.333 70.5391C72.8796 72.8467 70.188 76.1264 68.5985 79.9637C67.0091 83.8009 66.5932 88.0233 67.4035 92.0969C68.2138 96.1705 70.2139 99.9123 73.1508 102.849C76.0877 105.786 79.8295 107.786 83.9031 108.596C87.9767 109.407 92.1991 108.991 96.0364 107.401C99.8736 105.812 103.153 103.12 105.461 99.667C107.768 96.2136 109 92.1534 109 88M88 67H95M109 88V81" stroke="black" stroke-width="8" stroke-linecap="round" stroke-linejoin="round"/>
<path d="M109 81C116.732 81 123 74.732 123 67C123 59.268 116.732 53 109 53C101.268 53 95 59.268 95 67C95 74.732 101.268 81 109 81Z" stroke="black" stroke-width="8" stroke-linecap="round" stroke-linejoin="round"/>
<path d="M109 81V141" stroke="black" stroke-width="8" stroke-linecap="round" stroke-linejoin="round"/>
<path d="M102.632 145.076L99.1123 146.977C99.6437 147.961 100.563 148.678 101.647 148.953C102.731 149.228 103.881 149.037 104.818 148.426L102.632 145.076ZM130.809 154.367L127.06 155.764C127.55 157.078 128.692 158.04 130.071 158.299C131.449 158.557 132.862 158.075 133.795 157.028L130.809 154.367ZM146 185.974L145.793 181.979C143.667 182.089 142 183.845 142 185.974H146ZM146 186V190C148.209 190 150 188.209 150 186H146ZM79 186H75C75 188.209 76.7909 190 79 190V186ZM79 185.993H83C83 183.814 81.2556 182.036 79.0768 181.994L79 185.993ZM79.5 131V135C87.8568 135 95.2206 139.77 99.1123 146.977L102.632 145.076L106.151 143.175C100.972 133.584 91.0185 127 79.5 127V131ZM102.632 145.076L104.818 148.426C107.169 146.892 109.974 146 113 146V142V138C108.375 138 104.058 139.37 100.446 141.726L102.632 145.076ZM113 142V146C119.435 146 124.933 150.055 127.06 155.764L130.809 154.367L134.557 152.971C131.302 144.234 122.885 138 113 138V142ZM130.809 154.367L133.795 157.028C136.549 153.937 140.546 152 145 152V148V144C138.168 144 132.028 146.984 127.822 151.707L130.809 154.367ZM145 148V152C153.284 152 160 158.716 160 167H164H168C168 154.297 157.703 144 145 144V148ZM164 167H160C160 175.018 153.707 181.569 145.793 181.979L146 185.974L146.207 189.968C158.35 189.339 168 179.298 168 167H164ZM146 185.974H142V186H146H150V185.974H146ZM146 186V182H79V186V190H146V186ZM79 186H83V185.993H79H75V186H79ZM79 185.993L79.0768 181.994C66.9808 181.762 57 171.468 57 158.5H53H49C49 175.561 62.2096 189.671 78.9232 189.992L79 185.993ZM53 158.5H57C57 145.38 67.212 135 79.5 135V131V127C62.517 127 49 141.244 49 158.5H53Z" fill="black"/>
</svg>
