<svg width="514" height="156" viewBox="0 0 514 156" fill="none" xmlns="http://www.w3.org/2000/svg">
<path d="M116.88 124V36.192H158.096C162.619 36.192 166.587 37.088 170 38.88C173.413 40.5867 176.059 43.0187 177.936 46.176C179.813 49.248 180.752 52.832 180.752 56.928C180.752 61.28 179.984 64.9067 178.448 67.808C176.912 70.624 174.992 72.8427 172.688 74.464C170.384 76.0853 168.037 77.28 165.648 78.048V78.816C167.269 79.072 169.061 79.6267 171.024 80.48C172.987 81.248 174.864 82.4 176.656 83.936C178.448 85.3867 179.899 87.3067 181.008 89.696C182.203 92 182.8 94.9013 182.8 98.4C182.8 103.349 181.691 107.744 179.472 111.584C177.339 115.424 174.352 118.453 170.512 120.672C166.757 122.891 162.363 124 157.328 124H116.88ZM132.24 111.968H154.256C156.816 111.968 159.035 111.371 160.912 110.176C162.875 108.896 164.411 107.232 165.52 105.184C166.629 103.051 167.184 100.747 167.184 98.272C167.184 95.6267 166.587 93.3653 165.392 91.488C164.283 89.5253 162.747 88.032 160.784 87.008C158.821 85.8987 156.645 85.344 154.256 85.344H132.24V111.968ZM132.24 73.312H152.848C155.408 73.312 157.627 72.7147 159.504 71.52C161.381 70.24 162.832 68.6187 163.856 66.656C164.88 64.608 165.392 62.3893 165.392 60C165.392 56.16 164.411 53.2587 162.448 51.296C160.571 49.248 157.797 48.224 154.128 48.224H132.24V73.312ZM188.857 124V31.84H203.705V124H188.857ZM234.115 125.28C227.374 125.28 222.04 123.445 218.115 119.776C214.19 116.021 212.227 110.389 212.227 102.88V58.592H227.075V99.552C227.075 104.757 228.099 108.469 230.147 110.688C232.28 112.907 235.352 114.016 239.363 114.016C242.094 114.016 244.611 113.376 246.915 112.096C249.219 110.731 251.054 108.939 252.419 106.72C253.87 104.416 254.595 101.899 254.595 99.168V58.592H269.443V110.688C269.443 112.309 269.827 113.461 270.595 114.144C271.363 114.827 272.216 115.168 273.155 115.168C274.094 115.168 275.032 114.997 275.971 114.656C276.91 114.315 277.806 113.931 278.659 113.504V122.592C277.55 123.445 276.142 124.085 274.435 124.512C272.728 125.024 270.723 125.28 268.419 125.28C265.603 125.28 263.299 124.811 261.507 123.872C259.715 122.848 258.35 121.525 257.411 119.904C256.558 118.197 255.918 116.405 255.491 114.528C253.358 117.941 250.328 120.587 246.403 122.464C242.563 124.341 238.467 125.28 234.115 125.28ZM282.252 124V58.592H293.388L295.436 68.192C297.655 64.7787 300.3 62.1333 303.372 60.256C306.444 58.2933 310.071 57.312 314.252 57.312C318.519 57.312 322.316 58.1653 325.644 59.872C328.972 61.4933 331.575 64.1813 333.452 67.936C335.415 64.6933 338.017 62.1333 341.26 60.256C344.588 58.2933 348.513 57.312 353.036 57.312C357.217 57.312 360.929 58.1653 364.172 59.872C367.415 61.5787 369.932 64.096 371.724 67.424C373.601 70.6667 374.54 74.6773 374.54 79.456V124H359.692V82.656C359.692 77.7067 358.711 74.1653 356.748 72.032C354.785 69.8133 351.969 68.704 348.3 68.704C345.911 68.704 343.777 69.344 341.9 70.624C340.023 71.8187 338.529 73.5253 337.42 75.744C336.396 77.9627 335.884 80.48 335.884 83.296V124H321.036V82.656C321.036 77.7067 320.012 74.1653 317.964 72.032C316.001 69.8133 313.185 68.704 309.516 68.704C307.127 68.704 304.993 69.344 303.116 70.624C301.239 71.8187 299.745 73.5253 298.636 75.744C297.612 77.9627 297.1 80.48 297.1 83.296V124H282.252ZM410.648 125.28C404.675 125.28 399.427 124.043 394.904 121.568C390.381 119.008 386.84 115.296 384.28 110.432C381.805 105.568 380.568 99.68 380.568 92.768V89.824C380.568 82.912 381.891 77.024 384.536 72.16C387.267 67.296 390.936 63.6267 395.544 61.152C400.237 58.592 405.571 57.312 411.544 57.312H413.208C418.755 57.312 423.619 58.464 427.8 60.768C431.981 62.9867 435.224 66.1867 437.528 70.368C439.832 74.5493 440.984 79.456 440.984 85.088V93.152H396.056C396.056 97.6747 396.653 101.6 397.848 104.928C399.043 108.256 400.792 110.816 403.096 112.608C405.485 114.315 408.429 115.168 411.928 115.168C414.829 115.168 417.389 114.613 419.608 113.504C421.912 112.309 423.704 110.56 424.984 108.256C426.349 105.952 427.032 103.093 427.032 99.68H440.984C440.984 104.8 439.704 109.28 437.144 113.12C434.584 116.96 431.128 119.947 426.776 122.08C422.424 124.213 417.475 125.28 411.928 125.28H410.648ZM396.184 84.96H426.392C426.392 78.9867 425.069 74.592 422.424 71.776C419.864 68.8747 416.323 67.424 411.8 67.424C407.533 67.424 403.907 68.9173 400.92 71.904C398.019 74.8053 396.44 79.1573 396.184 84.96ZM447.022 124V58.592H457.902L459.822 68.192C462.297 64.608 465.369 61.92 469.038 60.128C472.707 58.2507 476.803 57.312 481.326 57.312C485.849 57.312 489.817 58.1653 493.23 59.872C496.643 61.5787 499.289 64.096 501.166 67.424C503.129 70.6667 504.11 74.6773 504.11 79.456V124H489.262V82.144C489.262 77.28 488.11 73.824 485.806 71.776C483.587 69.6427 480.473 68.576 476.462 68.576C473.817 68.576 471.385 69.2587 469.166 70.624C466.947 71.904 465.155 73.6533 463.79 75.872C462.51 78.0907 461.87 80.608 461.87 83.424V124H447.022Z" fill="black"/>
<path d="M45.8739 19.6522C45.8739 16.5565 46.7948 13.5303 48.5203 10.9563C50.2457 8.38231 52.6981 6.37613 55.5674 5.19146C58.4367 4.00678 61.594 3.69682 64.64 4.30076C67.686 4.9047 70.484 6.39543 72.6801 8.58442C74.8761 10.7734 76.3717 13.5624 76.9776 16.5986C77.5834 19.6348 77.2725 22.7819 76.084 25.642C74.8955 28.5021 72.8828 30.9466 70.3005 32.6665C67.7182 34.3864 64.6823 35.3044 61.5766 35.3044M45.8739 19.6522C45.8739 16.5565 44.9529 13.5303 43.2275 10.9563C41.5021 8.38231 39.0496 6.37613 36.1803 5.19146C33.311 4.00678 30.1538 3.69682 27.1077 4.30076C24.0617 4.9047 21.2638 6.39543 19.0677 8.58442C16.8716 10.7734 15.3761 13.5624 14.7702 16.5986C14.1643 19.6348 14.4753 22.7819 15.6638 25.642C16.8523 28.5021 18.8649 30.9466 21.4472 32.6665C24.0295 34.3864 27.0655 35.3044 30.1712 35.3044M45.8739 19.6522V24.8696M61.5766 35.3044C64.6823 35.3044 67.7182 36.2223 70.3005 37.9422C72.8828 39.6621 74.8955 42.1066 76.084 44.9667C77.2725 47.8268 77.5834 50.9739 76.9776 54.0101C76.3717 57.0463 74.8761 59.8353 72.6801 62.0243C70.484 64.2133 67.686 65.704 64.64 66.3079C61.594 66.9119 58.4367 66.6019 55.5674 65.4173C52.6981 64.2326 50.2457 62.2264 48.5203 59.6524C46.7948 57.0784 45.8739 54.0522 45.8739 50.9565M61.5766 35.3044H56.3423M30.1712 35.3044C27.0655 35.3044 24.0295 36.2223 21.4472 37.9422C18.8649 39.6621 16.8523 42.1066 15.6638 44.9667C14.4753 47.8268 14.1643 50.9739 14.7702 54.0101C15.3761 57.0463 16.8716 59.8353 19.0677 62.0243C21.2638 64.2133 24.0617 65.704 27.1077 66.3079C30.1538 66.9119 33.311 66.6019 36.1803 65.4173C39.0496 64.2326 41.5021 62.2264 43.2275 59.6524C44.9529 57.0784 45.8739 54.0522 45.8739 50.9565M30.1712 35.3044H35.4054M45.8739 24.8696C40.0923 24.8696 35.4054 29.5414 35.4054 35.3044M45.8739 24.8696C51.6555 24.8696 56.3423 29.5414 56.3423 35.3044M45.8739 50.9565V45.7391M35.4054 35.3044C35.4054 41.0673 40.0923 45.7391 45.8739 45.7391M56.3423 35.3044C56.3423 41.0673 51.6555 45.7391 45.8739 45.7391M45.8739 45.7391L45.8739 90.4596M23.8153 83.0062C31.2461 83.0062 37.7205 87.2377 41.1121 93.4978C43.3415 92.0479 46.0044 91.205 48.8649 91.205C54.9666 91.205 60.1689 95.0396 62.1812 100.423C64.7833 97.5111 68.573 95.677 72.7928 95.677C80.6392 95.677 87 102.017 87 109.839C87 117.41 81.0394 123.593 73.5405 123.98V124H23.4414V123.995C12.6703 123.789 4 114.694 4 103.503C4 92.183 12.8716 83.0062 23.8153 83.0062Z" stroke="black" stroke-width="8" stroke-linecap="round" stroke-linejoin="round"/>
</svg>
