<svg width="418" height="68" viewBox="0 0 418 68" fill="none" xmlns="http://www.w3.org/2000/svg">
<path d="M21.832 52.72C17.032 52.72 13.048 52.048 9.88 50.704C6.712 49.312 4.312 47.512 2.68 45.304C1.048 43.096 0.184 40.744 0.0880001 38.248C0.0880001 37.864 0.232 37.528 0.52 37.24C0.856 36.904 1.24 36.736 1.672 36.736H10.744C11.416 36.736 11.92 36.856 12.256 37.096C12.64 37.336 12.976 37.648 13.264 38.032C13.648 38.752 14.176 39.448 14.848 40.12C15.568 40.792 16.48 41.344 17.584 41.776C18.736 42.16 20.152 42.352 21.832 42.352C24.616 42.352 26.704 41.92 28.096 41.056C29.536 40.192 30.256 39.016 30.256 37.528C30.256 36.472 29.872 35.608 29.104 34.936C28.336 34.216 27.088 33.592 25.36 33.064C23.68 32.488 21.424 31.912 18.592 31.336C14.944 30.568 11.824 29.584 9.232 28.384C6.688 27.136 4.744 25.528 3.4 23.56C2.056 21.544 1.384 19.048 1.384 16.072C1.384 13.144 2.2 10.528 3.832 8.224C5.512 5.92 7.84 4.12 10.816 2.824C13.792 1.528 17.32 0.879997 21.4 0.879997C24.712 0.879997 27.616 1.312 30.112 2.176C32.656 3.04 34.792 4.192 36.52 5.632C38.248 7.072 39.544 8.608 40.408 10.24C41.32 11.824 41.8 13.384 41.848 14.92C41.848 15.304 41.704 15.664 41.416 16C41.128 16.288 40.768 16.432 40.336 16.432H30.832C30.304 16.432 29.848 16.336 29.464 16.144C29.08 15.952 28.744 15.64 28.456 15.208C28.168 14.152 27.4 13.24 26.152 12.472C24.952 11.656 23.368 11.248 21.4 11.248C19.288 11.248 17.632 11.632 16.432 12.4C15.28 13.12 14.704 14.248 14.704 15.784C14.704 16.744 15.016 17.584 15.64 18.304C16.312 19.024 17.392 19.648 18.88 20.176C20.416 20.704 22.504 21.256 25.144 21.832C29.512 22.648 33.04 23.68 35.728 24.928C38.416 26.128 40.384 27.712 41.632 29.68C42.88 31.6 43.504 34.024 43.504 36.952C43.504 40.216 42.568 43.048 40.696 45.448C38.872 47.8 36.328 49.6 33.064 50.848C29.8 52.096 26.056 52.72 21.832 52.72ZM65.4719 52C62.3999 52 59.7359 51.52 57.4799 50.56C55.2719 49.552 53.5679 48.016 52.3679 45.952C51.1679 43.84 50.5679 41.128 50.5679 37.816V23.992H44.9519C44.4239 23.992 43.9679 23.824 43.5839 23.488C43.2479 23.152 43.0799 22.72 43.0799 22.192V16.36C43.0799 15.832 43.2479 15.4 43.5839 15.064C43.9679 14.728 44.4239 14.56 44.9519 14.56H50.5679V2.68C50.5679 2.152 50.7359 1.72 51.0719 1.384C51.4559 1.048 51.8879 0.879997 52.3679 0.879997H60.7199C61.2479 0.879997 61.6799 1.048 62.0159 1.384C62.3519 1.72 62.5199 2.152 62.5199 2.68V14.56H71.5199C72.0479 14.56 72.4799 14.728 72.8159 15.064C73.1519 15.4 73.3199 15.832 73.3199 16.36V22.192C73.3199 22.72 73.1519 23.152 72.8159 23.488C72.4799 23.824 72.0479 23.992 71.5199 23.992H62.5199V36.808C62.5199 38.44 62.8319 39.736 63.4559 40.696C64.0799 41.656 65.1359 42.136 66.6239 42.136H72.1679C72.6959 42.136 73.1279 42.304 73.4639 42.64C73.7999 42.976 73.9679 43.408 73.9679 43.936V50.2C73.9679 50.728 73.7999 51.16 73.4639 51.496C73.1279 51.832 72.6959 52 72.1679 52H65.4719ZM94.0413 52.72C90.0093 52.72 86.6013 52.072 83.8173 50.776C81.0813 49.48 78.9693 47.632 77.4813 45.232C76.0413 42.784 75.2253 39.88 75.0333 36.52C74.9853 35.56 74.9613 34.48 74.9613 33.28C74.9613 32.032 74.9853 30.952 75.0333 30.04C75.2253 26.632 76.0893 23.728 77.6253 21.328C79.1613 18.928 81.2973 17.08 84.0333 15.784C86.8173 14.488 90.1533 13.84 94.0413 13.84C97.9773 13.84 101.313 14.488 104.049 15.784C106.833 17.08 108.993 18.928 110.529 21.328C112.065 23.728 112.929 26.632 113.121 30.04C113.169 30.952 113.193 32.032 113.193 33.28C113.193 34.48 113.169 35.56 113.121 36.52C112.929 39.88 112.089 42.784 110.601 45.232C109.161 47.632 107.049 49.48 104.265 50.776C101.529 52.072 98.1213 52.72 94.0413 52.72ZM94.0413 43.936C96.2013 43.936 97.7613 43.288 98.7213 41.992C99.7293 40.696 100.305 38.752 100.449 36.16C100.497 35.44 100.521 34.48 100.521 33.28C100.521 32.08 100.497 31.12 100.449 30.4C100.305 27.856 99.7293 25.936 98.7213 24.64C97.7613 23.296 96.2013 22.624 94.0413 22.624C91.9293 22.624 90.3693 23.296 89.3613 24.64C88.3533 25.936 87.8013 27.856 87.7053 30.4C87.6573 31.12 87.6333 32.08 87.6333 33.28C87.6333 34.48 87.6573 35.44 87.7053 36.16C87.8013 38.752 88.3533 40.696 89.3613 41.992C90.3693 43.288 91.9293 43.936 94.0413 43.936ZM118.475 52C117.947 52 117.515 51.832 117.179 51.496C116.843 51.16 116.675 50.728 116.675 50.2V16.36C116.675 15.88 116.843 15.472 117.179 15.136C117.515 14.752 117.947 14.56 118.475 14.56H126.755C127.283 14.56 127.715 14.752 128.051 15.136C128.387 15.472 128.555 15.88 128.555 16.36V19.24C129.851 17.752 131.387 16.6 133.163 15.784C134.987 14.968 137.027 14.56 139.283 14.56H142.451C142.931 14.56 143.339 14.728 143.675 15.064C144.059 15.4 144.251 15.832 144.251 16.36V23.776C144.251 24.256 144.059 24.688 143.675 25.072C143.339 25.408 142.931 25.576 142.451 25.576H135.467C133.499 25.576 131.963 26.128 130.859 27.232C129.803 28.288 129.275 29.8 129.275 31.768V50.2C129.275 50.728 129.083 51.16 128.699 51.496C128.363 51.832 127.931 52 127.403 52H118.475ZM156.369 52.72C153.777 52.72 151.449 52.24 149.385 51.28C147.369 50.272 145.761 48.928 144.561 47.248C143.361 45.568 142.761 43.672 142.761 41.56C142.761 38.152 144.153 35.464 146.937 33.496C149.721 31.48 153.417 30.112 158.025 29.392L167.025 28.024V27.016C167.025 25.288 166.665 23.968 165.945 23.056C165.225 22.144 163.905 21.688 161.985 21.688C160.641 21.688 159.537 21.952 158.673 22.48C157.857 23.008 157.209 23.728 156.729 24.64C156.297 25.264 155.697 25.576 154.929 25.576H146.865C146.337 25.576 145.929 25.432 145.641 25.144C145.353 24.808 145.233 24.424 145.281 23.992C145.281 23.128 145.593 22.144 146.217 21.04C146.889 19.888 147.897 18.76 149.241 17.656C150.585 16.552 152.313 15.64 154.425 14.92C156.537 14.2 159.081 13.84 162.057 13.84C165.177 13.84 167.841 14.2 170.049 14.92C172.257 15.64 174.033 16.648 175.377 17.944C176.769 19.24 177.801 20.776 178.473 22.552C179.145 24.28 179.481 26.2 179.481 28.312V50.2C179.481 50.728 179.289 51.16 178.905 51.496C178.569 51.832 178.161 52 177.681 52H169.329C168.801 52 168.369 51.832 168.033 51.496C167.697 51.16 167.529 50.728 167.529 50.2V47.68C166.905 48.592 166.065 49.432 165.009 50.2C163.953 50.968 162.705 51.568 161.265 52C159.873 52.48 158.241 52.72 156.369 52.72ZM159.753 44.512C161.145 44.512 162.393 44.224 163.497 43.648C164.649 43.024 165.537 42.088 166.161 40.84C166.833 39.544 167.169 37.936 167.169 36.016V35.008L161.049 36.088C158.793 36.472 157.137 37.072 156.081 37.888C155.073 38.656 154.569 39.568 154.569 40.624C154.569 41.44 154.809 42.136 155.289 42.712C155.769 43.288 156.393 43.744 157.161 44.08C157.929 44.368 158.793 44.512 159.753 44.512ZM202.366 67.84C198.67 67.84 195.598 67.36 193.15 66.4C190.75 65.44 188.83 64.288 187.39 62.944C185.998 61.6 184.99 60.256 184.366 58.912C183.742 57.616 183.406 56.584 183.358 55.816C183.31 55.288 183.478 54.856 183.862 54.52C184.246 54.184 184.702 54.016 185.23 54.016H194.374C194.806 54.016 195.166 54.112 195.454 54.304C195.79 54.544 196.054 54.928 196.246 55.456C196.486 55.984 196.798 56.536 197.182 57.112C197.614 57.688 198.19 58.144 198.91 58.48C199.678 58.864 200.71 59.056 202.006 59.056C203.446 59.056 204.646 58.816 205.606 58.336C206.566 57.904 207.286 57.16 207.766 56.104C208.246 55.096 208.486 53.728 208.486 52V47.176C207.382 48.376 205.966 49.36 204.238 50.128C202.51 50.848 200.422 51.208 197.974 51.208C195.526 51.208 193.366 50.848 191.494 50.128C189.622 49.408 188.062 48.328 186.814 46.888C185.566 45.448 184.582 43.696 183.862 41.632C183.19 39.568 182.782 37.192 182.638 34.504C182.59 33.256 182.59 32.008 182.638 30.76C182.782 28.168 183.19 25.84 183.862 23.776C184.534 21.712 185.494 19.936 186.742 18.448C188.038 16.96 189.622 15.832 191.494 15.064C193.366 14.248 195.526 13.84 197.974 13.84C200.566 13.84 202.774 14.344 204.598 15.352C206.47 16.312 208.006 17.536 209.206 19.024V16.36C209.206 15.88 209.374 15.472 209.71 15.136C210.046 14.752 210.478 14.56 211.006 14.56H219.286C219.814 14.56 220.246 14.752 220.582 15.136C220.966 15.472 221.158 15.88 221.158 16.36V50.992C221.158 54.64 220.414 57.712 218.926 60.208C217.438 62.704 215.302 64.6 212.518 65.896C209.734 67.192 206.35 67.84 202.366 67.84ZM201.862 41.848C203.398 41.848 204.646 41.512 205.606 40.84C206.566 40.168 207.262 39.304 207.694 38.248C208.174 37.192 208.438 36.064 208.486 34.864C208.534 34.336 208.558 33.592 208.558 32.632C208.558 31.672 208.534 30.952 208.486 30.472C208.438 29.224 208.174 28.072 207.694 27.016C207.262 25.96 206.566 25.12 205.606 24.496C204.646 23.824 203.398 23.488 201.862 23.488C200.278 23.488 199.006 23.824 198.046 24.496C197.134 25.168 196.462 26.08 196.03 27.232C195.646 28.384 195.406 29.656 195.31 31.048C195.262 32.104 195.262 33.184 195.31 34.288C195.406 35.68 195.646 36.952 196.03 38.104C196.462 39.256 197.134 40.168 198.046 40.84C199.006 41.512 200.278 41.848 201.862 41.848ZM243.319 52.72C237.655 52.72 233.143 51.184 229.783 48.112C226.423 45.04 224.671 40.48 224.527 34.432C224.527 34.096 224.527 33.664 224.527 33.136C224.527 32.608 224.527 32.2 224.527 31.912C224.671 28.12 225.511 24.88 227.047 22.192C228.631 19.456 230.791 17.392 233.527 16C236.311 14.56 239.551 13.84 243.247 13.84C247.471 13.84 250.951 14.68 253.687 16.36C256.471 18.04 258.559 20.32 259.951 23.2C261.343 26.08 262.039 29.368 262.039 33.064V34.792C262.039 35.32 261.847 35.752 261.463 36.088C261.127 36.424 260.719 36.592 260.239 36.592H237.199C237.199 36.64 237.199 36.712 237.199 36.808C237.199 36.904 237.199 37 237.199 37.096C237.247 38.488 237.487 39.76 237.919 40.912C238.351 42.064 239.023 42.976 239.935 43.648C240.847 44.32 241.951 44.656 243.247 44.656C244.207 44.656 244.999 44.512 245.623 44.224C246.295 43.888 246.847 43.528 247.279 43.144C247.711 42.712 248.047 42.352 248.287 42.064C248.719 41.584 249.055 41.296 249.295 41.2C249.583 41.056 250.015 40.984 250.591 40.984H259.519C259.999 40.984 260.383 41.128 260.671 41.416C261.007 41.656 261.151 42.016 261.103 42.496C261.055 43.312 260.647 44.296 259.879 45.448C259.111 46.6 257.983 47.752 256.495 48.904C255.055 50.008 253.231 50.92 251.023 51.64C248.815 52.36 246.247 52.72 243.319 52.72ZM237.199 29.464H249.367V29.32C249.367 27.784 249.127 26.44 248.647 25.288C248.215 24.136 247.519 23.248 246.559 22.624C245.647 22 244.543 21.688 243.247 21.688C241.951 21.688 240.847 22 239.935 22.624C239.071 23.248 238.399 24.136 237.919 25.288C237.439 26.44 237.199 27.784 237.199 29.32V29.464ZM267.781 52C267.253 52 266.821 51.832 266.485 51.496C266.149 51.16 265.981 50.728 265.981 50.2V3.4C265.981 2.872 266.149 2.44 266.485 2.104C266.821 1.768 267.253 1.6 267.781 1.6H289.741C293.869 1.6 297.253 2.176 299.893 3.328C302.533 4.48 304.477 6.136 305.725 8.296C307.021 10.408 307.669 12.928 307.669 15.856C307.669 17.584 307.333 19.12 306.661 20.464C306.037 21.76 305.245 22.84 304.285 23.704C303.373 24.568 302.509 25.192 301.693 25.576C303.517 26.44 305.125 27.856 306.517 29.824C307.957 31.792 308.677 34.096 308.677 36.736C308.677 39.904 307.957 42.64 306.517 44.944C305.125 47.2 303.061 48.952 300.325 50.2C297.637 51.4 294.325 52 290.389 52H267.781ZM278.869 42.64H288.949C291.013 42.64 292.573 42.04 293.629 40.84C294.685 39.64 295.213 38.272 295.213 36.736C295.213 35.056 294.661 33.64 293.557 32.488C292.501 31.336 290.965 30.76 288.949 30.76H278.869V42.64ZM278.869 21.616H288.301C290.269 21.616 291.733 21.112 292.693 20.104C293.701 19.096 294.205 17.8 294.205 16.216C294.205 14.68 293.701 13.432 292.693 12.472C291.733 11.464 290.269 10.96 288.301 10.96H278.869V21.616ZM329.564 52.72C323.9 52.72 319.388 51.184 316.028 48.112C312.668 45.04 310.916 40.48 310.772 34.432C310.772 34.096 310.772 33.664 310.772 33.136C310.772 32.608 310.772 32.2 310.772 31.912C310.916 28.12 311.756 24.88 313.292 22.192C314.876 19.456 317.036 17.392 319.772 16C322.556 14.56 325.796 13.84 329.492 13.84C333.716 13.84 337.196 14.68 339.932 16.36C342.716 18.04 344.804 20.32 346.196 23.2C347.588 26.08 348.284 29.368 348.284 33.064V34.792C348.284 35.32 348.092 35.752 347.708 36.088C347.372 36.424 346.964 36.592 346.484 36.592H323.444C323.444 36.64 323.444 36.712 323.444 36.808C323.444 36.904 323.444 37 323.444 37.096C323.492 38.488 323.732 39.76 324.164 40.912C324.596 42.064 325.268 42.976 326.18 43.648C327.092 44.32 328.196 44.656 329.492 44.656C330.452 44.656 331.244 44.512 331.868 44.224C332.54 43.888 333.092 43.528 333.524 43.144C333.956 42.712 334.292 42.352 334.532 42.064C334.964 41.584 335.3 41.296 335.54 41.2C335.828 41.056 336.26 40.984 336.836 40.984H345.764C346.244 40.984 346.628 41.128 346.916 41.416C347.252 41.656 347.396 42.016 347.348 42.496C347.3 43.312 346.892 44.296 346.124 45.448C345.356 46.6 344.228 47.752 342.74 48.904C341.3 50.008 339.476 50.92 337.268 51.64C335.06 52.36 332.492 52.72 329.564 52.72ZM323.444 29.464H335.612V29.32C335.612 27.784 335.372 26.44 334.892 25.288C334.46 24.136 333.764 23.248 332.804 22.624C331.892 22 330.788 21.688 329.492 21.688C328.196 21.688 327.092 22 326.18 22.624C325.316 23.248 324.644 24.136 324.164 25.288C323.684 26.44 323.444 27.784 323.444 29.32V29.464ZM362.666 52.72C360.074 52.72 357.746 52.24 355.682 51.28C353.666 50.272 352.058 48.928 350.858 47.248C349.658 45.568 349.058 43.672 349.058 41.56C349.058 38.152 350.45 35.464 353.234 33.496C356.018 31.48 359.714 30.112 364.322 29.392L373.322 28.024V27.016C373.322 25.288 372.962 23.968 372.242 23.056C371.522 22.144 370.202 21.688 368.282 21.688C366.938 21.688 365.834 21.952 364.97 22.48C364.154 23.008 363.506 23.728 363.026 24.64C362.594 25.264 361.994 25.576 361.226 25.576H353.162C352.634 25.576 352.226 25.432 351.938 25.144C351.65 24.808 351.53 24.424 351.578 23.992C351.578 23.128 351.89 22.144 352.514 21.04C353.186 19.888 354.194 18.76 355.538 17.656C356.882 16.552 358.61 15.64 360.722 14.92C362.834 14.2 365.378 13.84 368.354 13.84C371.474 13.84 374.138 14.2 376.346 14.92C378.554 15.64 380.33 16.648 381.674 17.944C383.066 19.24 384.098 20.776 384.77 22.552C385.442 24.28 385.778 26.2 385.778 28.312V50.2C385.778 50.728 385.586 51.16 385.202 51.496C384.866 51.832 384.458 52 383.978 52H375.626C375.098 52 374.666 51.832 374.33 51.496C373.994 51.16 373.826 50.728 373.826 50.2V47.68C373.202 48.592 372.362 49.432 371.306 50.2C370.25 50.968 369.002 51.568 367.562 52C366.17 52.48 364.538 52.72 362.666 52.72ZM366.05 44.512C367.442 44.512 368.69 44.224 369.794 43.648C370.946 43.024 371.834 42.088 372.458 40.84C373.13 39.544 373.466 37.936 373.466 36.016V35.008L367.346 36.088C365.09 36.472 363.434 37.072 362.378 37.888C361.37 38.656 360.866 39.568 360.866 40.624C360.866 41.44 361.106 42.136 361.586 42.712C362.066 43.288 362.69 43.744 363.458 44.08C364.226 44.368 365.09 44.512 366.05 44.512ZM409.173 52C406.101 52 403.437 51.52 401.181 50.56C398.973 49.552 397.269 48.016 396.069 45.952C394.869 43.84 394.269 41.128 394.269 37.816V23.992H388.653C388.125 23.992 387.669 23.824 387.285 23.488C386.949 23.152 386.781 22.72 386.781 22.192V16.36C386.781 15.832 386.949 15.4 387.285 15.064C387.669 14.728 388.125 14.56 388.653 14.56H394.269V2.68C394.269 2.152 394.437 1.72 394.773 1.384C395.157 1.048 395.589 0.879997 396.069 0.879997H404.421C404.949 0.879997 405.381 1.048 405.717 1.384C406.053 1.72 406.221 2.152 406.221 2.68V14.56H415.221C415.749 14.56 416.181 14.728 416.517 15.064C416.853 15.4 417.021 15.832 417.021 16.36V22.192C417.021 22.72 416.853 23.152 416.517 23.488C416.181 23.824 415.749 23.992 415.221 23.992H406.221V36.808C406.221 38.44 406.533 39.736 407.157 40.696C407.781 41.656 408.837 42.136 410.325 42.136H415.869C416.397 42.136 416.829 42.304 417.165 42.64C417.501 42.976 417.669 43.408 417.669 43.936V50.2C417.669 50.728 417.501 51.16 417.165 51.496C416.829 51.832 416.397 52 415.869 52H409.173Z" fill="black"/>
</svg>
