<svg width="817" height="131" viewBox="0 0 817 131" fill="none" xmlns="http://www.w3.org/2000/svg"><script xmlns=""/><script xmlns="" type="text/javascript"/><script xmlns=""/>
<path d="M161.391 71.6394C169.399 63.7929 177.515 54.3877 177.515 42.0805C177.515 34.2409 174.4 26.7225 168.857 21.1791C163.314 15.6357 155.795 12.5215 147.956 12.5215C138.497 12.5215 131.832 15.2087 123.771 23.2702C115.709 15.2087 109.045 12.5215 99.5863 12.5215C91.7468 12.5215 84.2284 15.6357 78.685 21.1791C73.1416 26.7225 70.0273 34.2409 70.0273 42.0805C70.0273 54.4415 78.0889 63.8466 86.1504 71.6394L123.771 109.26L161.391 71.6394Z" fill="#FD2929" stroke="#870D0D" stroke-width="11.802" stroke-linecap="round" stroke-linejoin="round"/>
<path d="M10.1462 50.5184C6.74107 53.9235 4.82812 58.5418 4.82812 63.3573C4.82812 68.1728 6.74107 72.791 10.1462 76.1961L55.0821 121.132C58.4872 124.537 63.1055 126.45 67.921 126.45C72.7365 126.45 77.3547 124.537 80.7598 121.132L128.905 72.9864C131.459 70.4326 132.894 66.9689 132.894 63.3573C132.894 59.7456 131.459 56.2819 128.905 53.7281L120.034 44.8567C120.048 44.605 120.055 44.3524 120.055 44.099C120.055 40.4873 118.62 37.0237 116.066 34.4699L109.647 28.0504C107.093 25.4966 103.63 24.0619 100.018 24.0619C99.7647 24.0619 99.512 24.069 99.2604 24.083L90.389 15.2116C87.8352 12.6578 84.3715 11.2231 80.7598 11.2231C78.7094 11.2231 76.7067 11.6855 74.8911 12.5526L71.1307 8.79218C68.5769 6.23838 65.1132 4.80367 61.5016 9.34287C57.8899 4.80366 54.4262 6.23838 51.8724 8.79218L10.1462 50.5184ZM106.437 63.3573L109.647 60.1475L112.857 63.3573L67.921 108.293L35.8239 76.1961L80.7598 31.2601L83.9695 34.4699L80.7598 37.6796C77.3547 41.0846 75.4417 45.7029 75.4417 50.5184C75.4417 55.3339 77.3547 59.9522 80.7598 63.3573C84.1649 66.7623 88.7832 68.6753 93.5987 68.6753C98.4142 68.6753 103.032 66.7623 106.437 63.3573Z" fill="#E683C7" stroke="#141414" stroke-width="9.07843" stroke-linecap="round" stroke-linejoin="round"/>
<path d="M123.765 60.466L83.4844 20.1855L26.9614 76.7086L67.2419 116.989L123.765 60.466Z" fill="#4D1957"/>
<path d="M75.6059 25.2856L62.1367 11.8164L11.8773 62.0758L25.3465 75.545L75.6059 25.2856Z" fill="#4D1957"/>
<path fill-rule="evenodd" clip-rule="evenodd" d="M9.36719 63.3571C9.36719 59.7455 10.8019 56.2818 13.3557 53.728L55.0819 12.0018C56.7845 10.2993 59.0936 9.34278 61.5014 9.34277C63.9091 9.34278 66.2182 10.2993 67.9208 12.0018L74.3402 18.4212C76.0427 16.7187 78.3519 15.7622 80.7596 15.7622C83.1674 15.7622 85.4765 16.7187 87.179 18.4212L97.6682 28.9104C98.4281 28.7067 99.2175 28.601 100.018 28.601C102.426 28.601 104.735 29.5575 106.437 31.26L112.857 37.6795C114.559 39.382 115.516 41.6911 115.516 44.0989C115.516 46.5066 114.559 48.8158 112.857 50.5183L103.228 60.1474C100.674 62.7012 97.2101 64.1359 93.5985 64.1359C89.9868 64.1359 86.5231 62.7012 83.9693 60.1474C81.4155 57.5936 79.9808 54.1299 79.9808 50.5183C79.9808 46.9067 81.4155 43.443 83.9693 40.8892L90.3888 34.4698L80.7596 24.8406L32.614 72.9863C30.0602 75.5401 26.5965 76.9748 22.9848 76.9748C19.3732 76.9748 15.9095 75.5401 13.3557 72.9863C10.8019 70.4325 9.36719 66.9688 9.36719 63.3571ZM67.9208 24.8406L61.5014 18.4212L19.7751 60.1474C18.9239 60.9987 18.4456 62.1533 18.4456 63.3571C18.4456 64.561 18.9239 65.7156 19.7751 66.5669C20.6264 67.4181 21.781 67.8964 22.9848 67.8964C24.1887 67.8964 25.3433 67.4181 26.1945 66.5669L47.0577 45.7037L67.9208 24.8406ZM90.3888 47.3086C89.5375 48.1599 89.0592 49.3144 89.0592 50.5183C89.0592 51.7222 89.5375 52.8768 90.3888 53.728C91.24 54.5793 92.3946 55.0575 93.5985 55.0575C94.8023 55.0575 95.9569 54.5793 96.8082 53.728L106.437 44.0989L100.018 37.6795L90.3888 47.3086Z" fill="#E683C7"/>
<path fill-rule="evenodd" clip-rule="evenodd" d="M13.3569 66.5671C15.1296 64.7944 18.0037 64.7944 19.7763 66.5671L64.7123 111.503C65.5635 112.354 66.7181 112.832 67.922 112.832C69.1259 112.832 70.2804 112.354 71.1317 111.503L119.277 63.3573L106.438 50.5185C104.666 48.7458 104.666 45.8718 106.438 44.0991C108.211 42.3264 111.085 42.3264 112.858 44.0991L125.697 56.9379C127.399 58.6405 128.356 60.9496 128.356 63.3573C128.356 65.7651 127.399 68.0742 125.697 69.7768L77.5511 117.922C74.9973 120.476 71.5336 121.911 67.922 121.911C64.3104 121.911 60.8467 120.476 58.2928 117.922L13.3569 72.9865C11.5842 71.2138 11.5842 68.3397 13.3569 66.5671Z" fill="#E683C7"/>
<path d="M782.085 88.9344C780.613 90.0225 778.788 90.8547 776.612 91.4308C774.5 91.9429 772.291 92.1989 769.987 92.1989C763.778 92.1989 759.009 90.6307 755.68 87.4941C752.352 84.3575 750.688 79.7487 750.688 73.6677V28.3477H765.666V40.9259H778.436V52.4479H765.666V73.4756C765.666 75.652 766.21 77.3483 767.298 78.5645C768.387 79.7167 769.955 80.2928 772.003 80.2928C774.308 80.2928 776.356 79.6527 778.148 78.3725L782.085 88.9344Z" fill="#E683C7"/>
<path d="M737.106 39.774V91.4311H722.799V85.4781C719.087 89.9589 713.71 92.1992 706.668 92.1992C701.804 92.1992 697.387 91.1111 693.418 88.9347C689.513 86.7583 686.441 83.6537 684.2 79.621C681.96 75.5883 680.84 70.9155 680.84 65.6026C680.84 60.2896 681.96 55.6168 684.2 51.5841C686.441 47.5514 689.513 44.4468 693.418 42.2704C697.387 40.094 701.804 39.0059 706.668 39.0059C713.262 39.0059 718.414 41.0862 722.127 45.247V39.774H737.106ZM709.261 79.9091C713.038 79.9091 716.174 78.6289 718.671 76.0684C721.167 73.4439 722.415 69.9553 722.415 65.6026C722.415 61.2498 721.167 57.7932 718.671 55.2327C716.174 52.6083 713.038 51.296 709.261 51.296C705.42 51.296 702.252 52.6083 699.755 55.2327C697.259 57.7932 696.011 61.2498 696.011 65.6026C696.011 69.9553 697.259 73.4439 699.755 76.0684C702.252 78.6289 705.42 79.9091 709.261 79.9091Z" fill="#E683C7"/>
<path d="M650.131 80.1971C652.819 80.1971 655.188 79.8131 657.236 79.0449C659.348 78.2128 661.301 76.9325 663.093 75.2042L671.062 83.8458C666.198 89.4148 659.092 92.1992 649.747 92.1992C643.922 92.1992 638.769 91.079 634.288 88.8386C629.807 86.5342 626.351 83.3657 623.918 79.333C621.486 75.3003 620.27 70.7235 620.27 65.6026C620.27 60.5457 621.454 56.0009 623.822 51.9681C626.255 47.8714 629.551 44.7029 633.712 42.4625C637.937 40.1581 642.673 39.0059 647.922 39.0059C652.851 39.0059 657.332 40.062 661.365 42.1744C665.397 44.2228 668.598 47.2313 670.966 51.2C673.399 55.1047 674.615 59.7455 674.615 65.1225L636.4 72.5158C637.489 75.0762 639.185 76.9966 641.489 78.2768C643.858 79.557 646.738 80.1971 650.131 80.1971ZM647.922 50.3359C644.146 50.3359 641.073 51.5521 638.705 53.9845C636.336 56.4169 635.088 59.7775 634.96 64.0663L660.117 59.1694C659.412 56.4809 657.972 54.3366 655.796 52.7363C653.619 51.136 650.995 50.3359 647.922 50.3359Z" fill="#E683C7"/>
<path d="M588.35 39.0058C593.151 39.0058 597.503 40.126 601.408 42.3664C605.377 44.5428 608.481 47.6474 610.722 51.6801C612.962 55.6488 614.082 60.2896 614.082 65.6025C614.082 70.9155 612.962 75.5883 610.722 79.621C608.481 83.5897 605.377 86.6943 601.408 88.9347C597.503 91.111 593.151 92.1992 588.35 92.1992C581.245 92.1992 575.836 89.9588 572.123 85.4781V91.4311H557.816V20.1865H572.795V45.2469C576.572 41.0862 581.757 39.0058 588.35 39.0058ZM585.757 79.9091C589.598 79.9091 592.735 78.6288 595.167 76.0684C597.663 73.4439 598.912 69.9553 598.912 65.6025C598.912 61.2498 597.663 57.7932 595.167 55.2327C592.735 52.6082 589.598 51.296 585.757 51.296C581.917 51.296 578.748 52.6082 576.252 55.2327C573.819 57.7932 572.603 61.2498 572.603 65.6025C572.603 69.9553 573.819 73.4439 576.252 76.0684C578.748 78.6288 581.917 79.9091 585.757 79.9091Z" fill="#E683C7"/>
<path d="M549.355 88.9344C547.882 90.0225 546.058 90.8547 543.882 91.4308C541.769 91.9429 539.561 92.1989 537.256 92.1989C531.047 92.1989 526.278 90.6307 522.95 87.4941C519.621 84.3575 517.957 79.7487 517.957 73.6677V28.3477H532.936V40.9259H545.706V52.4479H532.936V73.4756C532.936 75.652 533.48 77.3483 534.568 78.5645C535.656 79.7167 537.224 80.2928 539.273 80.2928C541.577 80.2928 543.626 79.6527 545.418 78.3725L549.355 88.9344Z" fill="#E683C7"/>
<path d="M483.693 80.1971C486.382 80.1971 488.75 79.8131 490.799 79.0449C492.911 78.2128 494.863 76.9325 496.656 75.2042L504.625 83.8458C499.76 89.4148 492.655 92.1992 483.309 92.1992C477.484 92.1992 472.331 91.079 467.85 88.8386C463.37 86.5342 459.913 83.3657 457.481 79.333C455.048 75.3003 453.832 70.7235 453.832 65.6026C453.832 60.5457 455.016 56.0009 457.385 51.9681C459.817 47.8714 463.114 44.7029 467.274 42.4625C471.499 40.1581 476.236 39.0059 481.485 39.0059C486.414 39.0059 490.895 40.062 494.927 42.1744C498.96 44.2228 502.161 47.2313 504.529 51.2C506.961 55.1047 508.178 59.7455 508.178 65.1225L469.963 72.5158C471.051 75.0762 472.747 76.9966 475.052 78.2768C477.42 79.557 480.301 80.1971 483.693 80.1971ZM481.485 50.3359C477.708 50.3359 474.636 51.5521 472.267 53.9845C469.899 56.4169 468.651 59.7775 468.523 64.0663L493.679 59.1694C492.975 56.4809 491.535 54.3366 489.358 52.7363C487.182 51.136 484.557 50.3359 481.485 50.3359Z" fill="#E683C7"/>
<path d="M443.48 92.1992C437.655 92.1992 433.111 90.663 429.846 87.5904C426.582 84.4539 424.949 80.0371 424.949 74.3401V20.1865H439.928V73.4759C439.928 75.6523 440.472 77.3486 441.56 78.5648C442.712 79.717 444.313 80.2931 446.361 80.2931C447.129 80.2931 447.897 80.1971 448.665 80.0051C449.498 79.813 450.138 79.589 450.586 79.333L451.258 90.951C448.761 91.7832 446.169 92.1992 443.48 92.1992Z" fill="#E683C7"/>
<path d="M409.816 92.1992C403.991 92.1992 399.447 90.663 396.182 87.5904C392.917 84.4539 391.285 80.0371 391.285 74.3401V20.1865H406.264V73.4759C406.264 75.6523 406.808 77.3486 407.896 78.5648C409.048 79.717 410.649 80.2931 412.697 80.2931C413.465 80.2931 414.233 80.1971 415.001 80.0051C415.833 79.813 416.474 79.589 416.922 79.333L417.594 90.951C415.097 91.7832 412.505 92.1992 409.816 92.1992Z" fill="#E683C7"/>
<path d="M377.418 39.774V91.4311H363.112V85.4781C359.399 89.9589 354.022 92.1992 346.981 92.1992C342.116 92.1992 337.699 91.1111 333.731 88.9347C329.826 86.7583 326.753 83.6537 324.513 79.621C322.273 75.5883 321.152 70.9155 321.152 65.6026C321.152 60.2896 322.273 55.6168 324.513 51.5841C326.753 47.5514 329.826 44.4468 333.731 42.2704C337.699 40.094 342.116 39.0059 346.981 39.0059C353.574 39.0059 358.727 41.0862 362.44 45.247V39.774H377.418ZM349.573 79.9091C353.35 79.9091 356.487 78.6289 358.983 76.0684C361.479 73.4439 362.728 69.9553 362.728 65.6026C362.728 61.2498 361.479 57.7932 358.983 55.2327C356.487 52.6083 353.35 51.296 349.573 51.296C345.733 51.296 342.564 52.6083 340.068 55.2327C337.571 57.7932 336.323 61.2498 336.323 65.6026C336.323 69.9553 337.571 73.4439 340.068 76.0684C342.564 78.6289 345.733 79.9091 349.573 79.9091Z" fill="#E683C7"/>
<path d="M310.67 24.2188V63.8738C310.67 73.2194 308.142 80.3567 303.085 85.2855C298.028 90.1504 290.859 92.5828 281.577 92.5828C276.968 92.5828 272.84 91.9107 269.191 90.5665C265.606 89.2222 262.662 87.3339 260.357 84.9015C257.989 87.3339 255.013 89.2222 251.428 90.5665C247.843 91.9107 243.779 92.5828 239.234 92.5828C229.952 92.5828 222.783 90.1504 217.726 85.2855C212.669 80.3567 210.141 73.2194 210.141 63.8738V24.2188H225.695V63.3937C225.695 68.8346 226.816 72.8673 229.056 75.4918C231.296 78.0523 234.625 79.3325 239.042 79.3325C248.067 79.3325 252.58 74.0195 252.58 63.3937V24.2188H268.135V63.3937C268.135 74.0195 272.68 79.3325 281.769 79.3325C290.603 79.3325 295.02 74.0195 295.02 63.3937V24.2188H310.67Z" fill="#E683C7"/>
</svg>